<svg xmlns="http://www.w3.org/2000/svg" viewBox="0 0 326.35 585.72"><defs><style>.a{opacity:0.66;}.b{fill:#c68200;}.c{fill:none;stroke:#3b373c;stroke-miterlimit:10;stroke-width:1.43px;}</style></defs><g class="a"><path class="b" d="M451.4,554.29c-15.24-38.67-11.09-58.41-7.66-99.84,1.54-18.59-5.35-96.64-1.65-114.93,11.59-57.16,29.83-59.51,54.41-112.4,31.81,11.23,51.74,55.39,60.14,88.06,22.61,87.93,7.07,173.21-8.81,262.6-.83,4.65-1.77,9.45-4.45,13.33-4.78,6.94-13.94,9.35-22.36,9.65-25.26.9-51.42,8.13-63.18-14.25C457.84,586.51,452.57,557.26,451.4,554.29Z" transform="translate(-337.63 -103.98)"/></g><path class="c" d="M459.31,612.74c-9.54-3.88-31.38-30.38-34.58-210.8-2.39-134.26,76.13-208.2,76.13-208.2s78.53,73.94,76.14,208.2c-3.2,180.42-25,206.92-34.59,210.8-16.77,6.81-31,9.6-41.65,9.6S476.09,619.55,459.31,612.74Z" transform="translate(-337.63 -103.98)"/><path class="c" d="M556.9,586.56s38.48-7.18,44.7,43.92c6.41-48.1,1.35-110.71-15.2-133-9.34-12.59-13.81,1.34-13.81,1.34" transform="translate(-337.63 -103.98)"/><path class="c" d="M444.57,586.56s-38.48-7.18-44.69,43.92c-6.41-48.1-1.35-110.71,15.2-133,9.34-12.59,13.8,1.34,13.8,1.34" transform="translate(-337.63 -103.98)"/><line class="c" x1="163.12" x2="163.12" y2="66.95"/><line class="c" x1="66.95" y1="226.24" y2="226.24"/><line class="c" x1="326.35" y1="226.24" x2="259.4" y2="226.24"/><line class="c" x1="283.07" y1="100.11" x2="235.73" y2="147.45"/><line class="c" x1="43.28" y1="100.11" x2="90.62" y2="147.45"/><path class="c" d="M543,612.47v13.85a14.37,14.37,0,0,1-14.33,14.33H472.13a14.37,14.37,0,0,1-14.32-14.33V612" transform="translate(-337.63 -103.98)"/><path class="c" d="M535.94,638.67v6.76a12,12,0,0,1-12,12H476.85a12,12,0,0,1-12-12v-6.76" transform="translate(-337.63 -103.98)"/><path class="c" d="M527,657v5.69a9,9,0,0,1-8.93,8.92H482.8a9,9,0,0,1-8.93-8.92V657" transform="translate(-337.63 -103.98)"/><path class="c" d="M510.35,671.62v7.43a9.93,9.93,0,1,1-19.86,0v-7.43" transform="translate(-337.63 -103.98)"/><path class="c" d="M507.39,618.06c-.71-42.77,2.52-188.7,3.29-222.13,0-13,8.2-21.38,20.17-15.58,15.94,7.73,1.4,47.37-25.19,47.37-8.65,0-23.71-5-30.52-10.27-25.62-19.79-23.26-38.37-13-43.79,16.5-8.75,29.07,2.83,29.07,23.08,0,15.25,3.79,198.44,3.64,221.59" transform="translate(-337.63 -103.98)"/></svg>