<svg xmlns="http://www.w3.org/2000/svg" viewBox="0 0 605.43 562.17"><defs><style>.a{isolation:isolate;}.b,.d,.f{mix-blend-mode:multiply;}.b{opacity:0.33;}.c{fill:#0081c6;}.e{fill:#c68200;}.f{opacity:0.66;}.g{fill:#55565a;}.h{fill:#d1cfcd;}</style></defs><g class="a"><g class="b"><path class="c" d="M492.86,555.69q-1.64-24.21-3.28-48.41c-.25-3.75,3.26-132,.63-132.11-88-2.88-202.52,23.37-220,12.39l.16,7.7c3.16,15.94-1.55,32.84-1.9,49.4-.93,43.86-1.41,90.72,2.57,134.22,11.92,7.94,31.72,3.68,44.83,2.58a613.4,613.4,0,0,1,131.85,3.22c10.95,1.46,22.05,3.2,32.89.53,3.06-.75,6.21-2,8.52-4.93C493.68,574.47,493.45,564.37,492.86,555.69Z" transform="translate(-156.37 -86.37)"/></g><g class="d"><path class="e" d="M702.66,377.24l-.59,1.18c1.14-1.81-200.81-1.95-211.33-3.25-4.54,29.34-3.29,178.13,3.57,206.52a18.3,18.3,0,0,0,2.44,6.41c1.78,2.42,4.41,2.91,6.86,3.24,64.13,8.69,128.6-4.86,192.32-18.38a3.91,3.91,0,0,0,2.16-1c1.11-1.14,13.43-3.35,13.56-5.3,3.61-55.83-4.87-111.76-5-167.82C706.61,391.21,706.32,382.79,702.66,377.24Z" transform="translate(-156.37 -86.37)"/></g><g class="f"><path class="e" d="M487.54,205.34q1.63,24.21,3.28,48.41c.25,3.75-3.26,132-.63,132.11,88,2.88,202.52-23.37,220-12.39l-.16-7.7c-3.16-15.94,1.55-32.84,1.9-49.4.93-43.86,1.41-90.72-2.57-134.22-11.92-7.94-31.72-3.68-44.83-2.58a613.4,613.4,0,0,1-131.85-3.22c-10.95-1.46-22-3.2-32.89-.53-3.06.75-6.21,2-8.52,4.93C486.72,186.56,487,196.66,487.54,205.34Z" transform="translate(-156.37 -86.37)"/></g><g class="d"><path class="c" d="M277.74,383.79l.59-1.18c-1.14,1.81,200.81,1.95,211.33,3.25,4.54-29.34,3.29-178.13-3.57-206.52a18.3,18.3,0,0,0-2.44-6.41c-1.78-2.42-4.41-2.91-6.86-3.24-64.13-8.69-128.6,4.86-192.32,18.38a3.88,3.88,0,0,0-2.16,1c-1.11,1.14-13.43,3.35-13.56,5.3-3.61,55.83,4.87,111.76,5,167.82C273.78,369.82,274.08,378.24,277.74,383.79Z" transform="translate(-156.37 -86.37)"/></g><path class="c" d="M331.71,102.55c0,2.6-2.12,4.35-5.42,4.35a13.6,13.6,0,0,1-6.68-2l1.41-2.24a12.67,12.67,0,0,0,5.17,1.61c1.17,0,2.22-.48,2.22-1.51,0-1.39-2.08-1.62-4.64-2.58C322,99.61,320,98.56,320,96s1.95-4.26,5.25-4.26a14.19,14.19,0,0,1,6,1.51l-1.41,2.29a12.51,12.51,0,0,0-4.43-1.2c-1.14,0-2.14.44-2.14,1.45,0,1.38,2,1.49,4.43,2.39C329.4,98.81,331.71,99.82,331.71,102.55Z" transform="translate(-156.37 -86.37)"/><path class="c" d="M342.21,94.63v12h-3.15v-12h-4.37V92h11.82v2.66Z" transform="translate(-156.37 -86.37)"/><path class="c" d="M350.48,106.67V92h10.33v2.66h-7.18V98h5.88v2.61h-5.88V104h7.31v2.67Z" transform="translate(-156.37 -86.37)"/><path class="c" d="M371.08,101h-2.47v5.7h-3.15V92H372c3.82,0,5.9,1.38,5.9,4.49,0,2.46-1.29,3.84-3.66,4.33l3.68,5.88h-3.43Zm.74-6.52h-3.21v4h3.17c1.68,0,2.91-.46,2.91-2S373.46,94.45,371.82,94.45Z" transform="translate(-156.37 -86.37)"/><path class="c" d="M382.34,92h3.15v7l5.67-7H395l-6,6.88,6.3,7.82h-3.74L387.13,101l-1.64,1.89v3.74h-3.15Z" transform="translate(-156.37 -86.37)"/><path class="c" d="M405.29,94.63v12h-3.15v-12h-4.36V92H409.6v2.66Z" transform="translate(-156.37 -86.37)"/><path class="c" d="M413.57,106.67V92H423.9v2.66h-7.18V98h5.88v2.61h-5.88V104H424v2.67Z" transform="translate(-156.37 -86.37)"/><path class="c" d="M431.69,96.67v10h-3.15V92h3.19l6.17,10V92H441v14.7h-3.19Z" transform="translate(-156.37 -86.37)"/><path class="g" d="M156.6,315v-3.15h7l-7-5.67v-3.82l6.89,6,7.81-6.3v3.74l-5.63,4.45,1.89,1.64h3.74V315Z" transform="translate(-156.37 -86.37)"/><path class="g" d="M168.38,289.5v5.79l2.92.95v3.42l-14.7-5.54v-3.45l14.7-5.52v3.4Zm-2.47,5v-4.17l-6.47,2.1Z" transform="translate(-156.37 -86.37)"/><path class="g" d="M161.31,278.14h10v3.15H156.6v-3.2l10-6.17h-10v-3.13h14.7V272Z" transform="translate(-156.37 -86.37)"/><path class="g" d="M167.19,252.43c2.6,0,4.34,2.12,4.34,5.42a13.71,13.71,0,0,1-2,6.68l-2.25-1.41a12.54,12.54,0,0,0,1.62-5.16c0-1.18-.48-2.23-1.51-2.23-1.39,0-1.62,2.08-2.59,4.64-.58,1.74-1.63,3.82-4.19,3.82s-4.27-1.95-4.27-5.25a14.25,14.25,0,0,1,1.51-6l2.29,1.4a12.71,12.71,0,0,0-1.19,4.43c0,1.14.44,2.14,1.45,2.14,1.38,0,1.49-2,2.39-4.43C163.45,254.74,164.46,252.43,167.19,252.43Z" transform="translate(-156.37 -86.37)"/><path class="g" d="M171.3,248.21H156.6V237.88h2.67v7.18h3.38v-5.88h2.6v5.88h3.38v-7.31h2.67Z" transform="translate(-156.37 -86.37)"/><path class="g" d="M161.31,230.09h10v3.15H156.6v-3.19l10-6.18h-10v-3.13h14.7v3.2Z" transform="translate(-156.37 -86.37)"/><path class="g" d="M171.3,579.22v6.89H156.6v-5.92c0-3.64,1.26-5.48,3.57-5.48a3.24,3.24,0,0,1,3.28,2.41,3.82,3.82,0,0,1,3.9-3.21C169.77,573.91,171.3,575.57,171.3,579.22ZM159,580.38V583h3.42v-2.52c0-1.58-.54-2.63-1.76-2.63C159.67,577.81,159,578.59,159,580.38Zm5.69-.11V583h4.14v-3.11c0-1.93-.78-2.83-2-2.83C165.38,577,164.73,578.13,164.73,580.27Z" transform="translate(-156.37 -86.37)"/><path class="g" d="M171.3,569.58H156.6V559.25h2.67v7.18h3.38v-5.88h2.6v5.88h3.38v-7.31h2.67Z" transform="translate(-156.37 -86.37)"/><path class="g" d="M171.3,549.36v5.25H156.6v-5.25c0-4.73,2.1-7.39,7.35-7.39S171.3,544.63,171.3,549.36Zm-12,.27v1.83h9.36v-1.83c0-2.94-1.13-4.51-4.68-4.51S159.27,546.69,159.27,549.63Z" transform="translate(-156.37 -86.37)"/><path class="g" d="M165.61,531.74v2.48h5.69v3.15H156.6v-6.51c0-3.82,1.39-5.9,4.5-5.9,2.45,0,3.84,1.28,4.32,3.65l5.88-3.67v3.42Zm-6.53-.73v3.21h4v-3.17c0-1.68-.46-2.92-2-2.92S159.08,529.37,159.08,531Z" transform="translate(-156.37 -86.37)"/><path class="g" d="M171.3,520.48H156.6V510.15h2.67v7.18h3.38v-5.87h2.6v5.87h3.38V510h2.67Z" transform="translate(-156.37 -86.37)"/><path class="g" d="M171.3,505.51H156.6v-3.15h14.7Z" transform="translate(-156.37 -86.37)"/><path class="g" d="M169.81,487.87a6.17,6.17,0,0,1,1.72,4.12c0,3.08-2.39,5.79-7.56,5.79s-7.6-2.66-7.6-6.13a12.88,12.88,0,0,1,2.19-6.53l2.31,1.49a10.48,10.48,0,0,0-1.68,4.66c0,2.06,1.82,3.28,4.76,3.28s4.92-1.09,4.92-3.23a5.77,5.77,0,0,0-1.7-3.45h-1.81v3.51h-2.48v-6.45h8.42v2.94Z" transform="translate(-156.37 -86.37)"/><path class="g" d="M171.3,480.14H156.6V477h14.7Z" transform="translate(-156.37 -86.37)"/><path class="g" d="M161.31,468.64h10v3.15H156.6v-3.2l10-6.17h-10v-3.13h14.7v3.19Z" transform="translate(-156.37 -86.37)"/><path class="g" d="M169.81,444.8a6.17,6.17,0,0,1,1.72,4.12c0,3.08-2.39,5.79-7.56,5.79s-7.6-2.67-7.6-6.13a12.88,12.88,0,0,1,2.19-6.53l2.31,1.49a10.48,10.48,0,0,0-1.68,4.66c0,2.06,1.82,3.28,4.76,3.28s4.92-1.09,4.92-3.23a5.77,5.77,0,0,0-1.7-3.45h-1.81v3.51h-2.48v-6.45h8.42v2.94Z" transform="translate(-156.37 -86.37)"/><path class="g" d="M171.3,437.07H156.6V426.74h2.67v7.18h3.38V428h2.6v5.88h3.38v-7.3h2.67Z" transform="translate(-156.37 -86.37)"/><path class="g" d="M161.31,419h10v3.15H156.6v-3.19l10-6.17h-10v-3.13h14.7v3.19Z" transform="translate(-156.37 -86.37)"/><path class="e" d="M550,94.63h-7.28V92H554v2.41L546.29,104h7.85v2.67H542.22v-2.42Z" transform="translate(-156.37 -86.37)"/><path class="e" d="M567.29,96.5l-2.65,10.17h-3.1L557.44,92H561l2.33,10.52L566,92h2.56l2.65,10.45L573.57,92h3.59L573,106.67h-3.13Z" transform="translate(-156.37 -86.37)"/><path class="e" d="M590,103.75H584.2l-1,2.92h-3.42L585.37,92h3.45l5.52,14.7h-3.4Zm-5-2.48h4.18l-2.1-6.47Z" transform="translate(-156.37 -86.37)"/><path class="e" d="M598.2,92h3.15v7L607,92h3.82l-6,6.88,6.3,7.82h-3.74L603,101l-1.64,1.89v3.74H598.2Z" transform="translate(-156.37 -86.37)"/><path class="e" d="M621.15,94.63v12H618v-12h-4.37V92h11.82v2.66Z" transform="translate(-156.37 -86.37)"/><path class="e" d="M629.43,106.67V92h10.33v2.66h-7.18V98h5.88v2.61h-5.88V104h7.3v2.67Z" transform="translate(-156.37 -86.37)"/><path class="e" d="M647.55,96.67v10H644.4V92h3.19l6.18,10V92h3.13v14.7h-3.19Z" transform="translate(-156.37 -86.37)"/><path class="g" d="M490.73,647.45c-.13-41.56.36-83.13,2.7-124.63,1.23-21.85,2.95-43.66,2.9-65.56-.09-36.31-3.28-72.63-6.41-108.78-1-11.65-2.34-23.3-2.95-35-.47-9-.58-18.07-.57-27.11,0-22,.82-44.06,1.79-66.07.87-19.82,2-39.62,3.05-59.43.55-10,1.1-20,1.88-30,.64-8.31,1.21-16.58,1.06-24.92-.11-6.18-.45-12.35-.83-18.52-.09-1.44-2.34-1.45-2.25,0a276.3,276.3,0,0,1,.62,31.39c-.54,10.29-1.55,20.55-2.12,30.84-1,18.35-2,36.69-2.94,55-1.07,22-2,44.09-2.36,66.16-.32,18.87-.21,37.7,1.5,56.5,3.65,40.22,7.46,80.59,8.18,121,.4,21.92-1,43.73-2.28,65.59-2.25,37.07-3.1,74.18-3.22,111.31q0,11.09,0,22.18a1.13,1.13,0,0,0,2.25,0Z" transform="translate(-156.37 -86.37)"/><path class="g" d="M760.71,382.09q-62.16.11-124.31-.5c-28.93-.26-57.85-.61-86.77-.52q-45.86.14-91.66,1.77-30.62,1-61.2,2.47c-22.91,1-45.85,2.71-68.79,2.6-18.45-.08-36.88-1.39-55.33-2-11.61-.36-23.26-1.56-34.88-1.32-4.69.09-9.37.25-14.06.41-1.44.05-1.45,2.3,0,2.25,7.1-.24,14.25-.66,21.35-.43,4.19.14,8.36.57,12.55.78,19.38,1,38.82,1.68,58.22,2.29,21.2.66,42.34-.56,63.5-1.57q32.48-1.55,65-2.79c31.74-1.18,63.49-2,95.25-2.22,28.36-.18,56.72.1,85.09.37q58.68.56,117.38.63l18.69,0a1.13,1.13,0,0,0,0-2.25Z" transform="translate(-156.37 -86.37)"/><g class="d"><path class="h" d="M690.12,582.58v4.24c-.55-.05-1.5-.13-2.83-.13-3.94,0-4.66.86-4.66,5.71,0,4.56.39,5.53,4.62,5.53a19.76,19.76,0,0,0,4.33-.41l.18-.06V582.58Zm-2.71,13.72c-1.44,0-2.29,0-2.61-.4s-.42-1.53-.42-3.41v-.19c0-2.1.1-3.12.46-3.57s1.17-.42,2.55-.42,2.18.08,2.73.13v7.73c-.55.05-1.42.13-2.71.13" transform="translate(-156.37 -86.37)"/><path class="h" d="M705.43,592.4c0-4.85-.67-5.71-4.7-5.71s-4.74.8-4.74,5.71c0,4.56.41,5.53,4.56,5.53a22.55,22.55,0,0,0,4.48-.41l.4-.06V596l-.52.07a25.67,25.67,0,0,1-3.82.26c-1.56,0-2.46,0-2.81-.39s-.43-1.34-.43-3h7.58Zm-4.66-4.11c1.35,0,2.1,0,2.45.34s.43,1.06.44,2.7h-5.81c0-1.64.09-2.34.44-2.7s1.11-.34,2.48-.34" transform="translate(-156.37 -86.37)"/><path class="h" d="M714.3,586.69a16.37,16.37,0,0,0-4,.42l-.18.06v1.45l.35-.07a17.09,17.09,0,0,1,3.39-.26c2.37,0,2.82,0,2.82,2.32v.17h-2.89c-2.32,0-4.33.16-4.33,3.5,0,3.49,2.46,3.57,4.63,3.57a21.72,21.72,0,0,0,4.33-.37l.18,0v-6.85c0-3.63-1.82-3.92-4.25-3.92m-.56,5.46h2.89v4a18.26,18.26,0,0,1-2.69.15c-2.2,0-2.74-.26-2.74-2.16s.34-2,2.54-2" transform="translate(-156.37 -86.37)"/><path class="h" d="M671.82,587.5h-1.53s.21,4.55.21,5.78,0,2-.38,2.32-1.45.37-3.25.37h-.53v-7.38h-1.91V596h-.29c-2,0-2.95-.12-3.38-.46s-.4-.94-.4-2.26.13-5.75.18-5.75H659s-.17,4.7-.17,6c0,3.71.8,4.42,5.32,4.42h2.66c4.33,0,5.26-.44,5.26-4.47,0-1.06-.17-5.92-.24-5.92" transform="translate(-156.37 -86.37)"/><rect class="h" x="520.2" y="503.43" width="1.57" height="8.04"/><path class="h" d="M677.36,583.51a1.64,1.64,0,0,0-1.56,1.71,1.76,1.76,0,0,0,.89,1.55v.2a.34.34,0,0,0,.36.31h.61A.34.34,0,0,0,678,587v-.2a1.76,1.76,0,0,0,.89-1.55A1.64,1.64,0,0,0,677.36,583.51Zm.13,2.23a.57.57,0,0,0-.13.08l-.13-.08a.57.57,0,0,1-.27-.52.51.51,0,0,1,.4-.55c.18,0,.39.23.39.55A.59.59,0,0,1,677.49,585.74Z" transform="translate(-156.37 -86.37)"/><rect class="h" x="520.41" y="501.15" width="1.14" height="0.23"/><rect class="h" x="520.41" y="501.61" width="1.14" height="0.23"/><rect class="h" x="520.76" y="502.08" width="0.46" height="0.23"/><path class="h" d="M675.18,585.06h-.45v.25h.45v-.25Z" transform="translate(-156.37 -86.37)"/><path class="h" d="M679.53,585.31H680v-.25h-.45v.25Z" transform="translate(-156.37 -86.37)"/><path class="h" d="M677.48,582.83v-.45h-.24v.45h.24Z" transform="translate(-156.37 -86.37)"/><path class="h" d="M676.08,582.74l-.21.13.23.39.2-.13Z" transform="translate(-156.37 -86.37)"/><path class="h" d="M675.1,583.76,675,584l.4.23.11-.22Z" transform="translate(-156.37 -86.37)"/><path class="h" d="M679.72,584l-.12-.21-.38.22a1.47,1.47,0,0,1,.1.22Z" transform="translate(-156.37 -86.37)"/><path class="h" d="M675,586.43l.12.21.37-.21a2.14,2.14,0,0,1-.1-.22Z" transform="translate(-156.37 -86.37)"/><path class="h" d="M679.6,586.64l.12-.21-.38-.22c0,.08-.07.15-.1.22Z" transform="translate(-156.37 -86.37)"/><path class="h" d="M678.83,582.87l-.21-.13-.22.38.2.14Z" transform="translate(-156.37 -86.37)"/></g></g></svg>