<svg xmlns="http://www.w3.org/2000/svg" viewBox="0 0 814 768"><defs><style>.a{isolation:isolate;}.b{fill:none;}.c{opacity:0.33;}.d{fill:#c68200;}.e{mix-blend-mode:multiply;}.f{fill:#fff;}.g{fill:#55565a;}</style></defs><g class="a"><rect class="b" width="814" height="768"/><g class="c"><path class="d" d="M429.6,52.79c-9.17-5.89-19.22-11.61-30.11-11.4S365,37.93,355.83,43.75c-27.92,17.8-45.65,17.81-73.57,35.61-19.05,12.13-35.35,52.8-44.9,73.27-7.56,16.2-7.47,35.07-3.72,52.55,11.06,51.54,50.6,91.38,87.43,129.1q86.46,88.55,165.49,184s6.64,16.41,10.62,12.82l.1.12,0-.23s78.48-85,108.48-116c31.44-32.49-19.84-97-40-183-19.58-83.49-43.15-98.53-43.15-98.53A431.47,431.47,0,0,0,429.6,52.79Z" transform="translate(-112)"/></g><g class="e"><path class="d" d="M706.21,44.21c-57.48-38.16-189,18.53-183.58,89.2,0,0-1.85,61.53-22.85,79.53-24.7,30-105,200-83,224,33,39,69.78,81.31,69.78,81.31s6.64,16.41,10.62,12.82l.1.12,0-.23c54.58-49.3,102.38-105.69,149.94-161.86,33-39,66.67-79,85.38-126.61C756.58,181.51,794.91,103.09,706.21,44.21Z" transform="translate(-112)"/></g><path class="f" d="M550.56,237.26h-9.84v-21h8.46c5.19,0,7.83,1.8,7.83,5.1a4.62,4.62,0,0,1-3.45,4.68,5.46,5.46,0,0,1,4.59,5.58C558.15,235.07,555.78,237.26,550.56,237.26Zm-1.65-17.52h-3.69v4.89h3.6c2.25,0,3.75-.78,3.75-2.52C552.57,220.64,551.46,219.74,548.91,219.74Zm.15,8.13h-3.84v5.91h4.44c2.76,0,4.05-1.11,4.05-2.91C553.71,228.8,552.12,227.87,549.06,227.87Z" transform="translate(-112)"/><path class="f" d="M564.33,237.26v-21h14.76v3.81H568.83v4.83h8.4v3.72h-8.4v4.83h10.44v3.81Z" transform="translate(-112)"/><path class="f" d="M593.22,237.26h-7.5v-21h7.5c6.75,0,10.56,3,10.56,10.5S600,237.26,593.22,237.26Zm-.39-17.19h-2.61v13.38h2.61c4.2,0,6.45-1.62,6.45-6.69S597,220.07,592.83,220.07Z" transform="translate(-112)"/><path class="f" d="M618.39,229.13h-3.54v8.13h-4.5v-21h9.3c5.46,0,8.43,2,8.43,6.42,0,3.51-1.83,5.49-5.22,6.18l5.25,8.4h-4.89Zm1.05-9.33h-4.59v5.79h4.53c2.4,0,4.17-.66,4.17-2.91S621.78,219.8,619.44,219.8Z" transform="translate(-112)"/><path class="f" d="M634.47,237.26v-21H639v21Z" transform="translate(-112)"/><path class="f" d="M651.09,235.37c0,4,0,5.67-6.51,7.17l-1.47-3.33c3.48-1.14,3.48-1.59,3.48-3.6V216.26h4.5Z" transform="translate(-112)"/><path class="f" d="M663,220.07v4.83h8.16v3.75H663v8.61h-4.5v-21h14.76v3.81Z" transform="translate(-112)"/><path class="g" d="M352.82,223.46l-4.89,10.29h-2.46l-4.89-10.26v13.77h-4.5v-21h4.59l6,12.66,6-12.66h4.61v21h-4.49Z" transform="translate(-112)"/><path class="g" d="M377.33,233.09h-8.28l-1.35,4.17h-4.89l7.92-21h4.92l7.88,21h-4.86Zm-7.14-3.54h6l-3-9.24Z" transform="translate(-112)"/><path class="g" d="M397.1,229.13h-3.54v8.13h-4.5v-21h9.29c5.46,0,8.43,2,8.43,6.42,0,3.51-1.83,5.49-5.22,6.18l5.25,8.4h-4.89Zm1-9.33h-4.59v5.79h4.52c2.4,0,4.17-.66,4.17-2.91S400.48,219.8,398.15,219.8Z" transform="translate(-112)"/><path class="g" d="M413.17,216.26h4.5v9.93l8.1-9.93h5.46l-8.52,9.84,9,11.16h-5.34l-6.36-8-2.34,2.7v5.34h-4.5Z" transform="translate(-112)"/><path class="g" d="M446,220.07v17.19h-4.5V220.07h-6.23v-3.81h16.88v3.81Z" transform="translate(-112)"/></g></svg>