<svg xmlns="http://www.w3.org/2000/svg" viewBox="0 0 735.47 659.55"><defs><style>.a{isolation:isolate;}.b{mix-blend-mode:multiply;opacity:0.66;}.c{fill:#c68200;}.d{opacity:0.7;}.e{fill:#fff;}.f{fill:#55565a;}</style></defs><g class="a"><g class="b"><path class="c" d="M169.9,294.8C211.19,141.68,326.5,48,572.91,45.56c170.15-1.69,312.71,66.74,318.72,239.06L903.5,392.84c6,172.32-33.62,274.62-180.37,279.74L603.35,704.83c-91.73,3.2-336.78-24-387.77-105.74C201.3,576.2,160.92,328.11,169.9,294.8Z" transform="translate(-168.61 -45.53)"/></g><g class="d"><path class="e" d="M292.45,497.16c48.34,108.33,153.86,168.65,312.68,138.46,109.67-20.84,205-33.06,184.4-161.78L773.33,336c-20.65-128.73-83.71-206.47-178.82-191.21l-81.62-8.39C453.44,146,299.71,198,278.55,265.3,272.62,284.15,281.94,473.6,292.45,497.16Z" transform="translate(-168.61 -45.53)"/></g><path class="e" d="M476.13,566.8h-.06a126.51,126.51,0,0,1-12.9.68c-60,0-99.23-46.59-107.7-127.82l1-88.79c25.71-37.42,47.86-59.39,71.81-71.22,22.21-11,44-12.41,71.53-14.25,12.43-.82,26.51-1.76,41.9-3.76a312.74,312.74,0,0,1,39.66-2.82c38,0,64.35,9.58,82.84,30.15,17.65,19.64,27.37,47.94,37.67,77.9,16.34,47.59,15.92,119,10.63,131-18.79,42.64-134.31,71.92-177.19,76.41Z" transform="translate(-168.61 -45.53)"/><path class="c" d="M581.4,259.33c37.87,0,64.08,9.53,82.47,30,17.58,19.56,27.29,47.81,37.56,77.72,9.57,27.86,12.47,61.29,13.35,78.73,1.35,27-.33,46.58-2.7,51.94-18.7,42.44-133.88,71.62-176.72,76.11l-59.11-7.51H476a125.55,125.55,0,0,1-12.85.68,96,96,0,0,1-41.7-9,93.07,93.07,0,0,1-32-25.53C371.61,510.63,360,478.54,356,439.68L357,351c25.62-37.27,47.69-59.15,71.53-70.93,22.12-10.92,43.84-12.37,71.34-14.2,12.44-.82,26.53-1.76,41.94-3.76a311.57,311.57,0,0,1,39.59-2.82m0-1a310.4,310.4,0,0,0-39.72,2.83c-81.18,10.53-118-9-185.68,89.56l-1,89c8.14,78,45.71,128.27,108.2,128.27a122.56,122.56,0,0,0,12.95-.69l59.23,7.53c43.91-4.58,158.83-34,177.65-76.71,5.27-12,5.68-84-10.62-131.41-21.87-63.65-38.51-108.38-121-108.38Z" transform="translate(-168.61 -45.53)"/><path class="f" d="M479.39,396.28l-10.21,39.23h-12l-15.8-56.74h13.78l9,40.61,10.3-40.61h9.89l10.21,40.37,9.08-40.37h13.86L501.6,435.51H489.52Z" transform="translate(-168.61 -45.53)"/><path class="f" d="M567.9,410.79H545.21v24.72H533.05V378.77h12.16v22H567.9v-22H580v56.74H567.9Z" transform="translate(-168.61 -45.53)"/><path class="f" d="M614.91,413.06l-20.43-34.29H608.1L621,403l12.89-24.24h13.61l-20.42,34.29v22.45H614.91Z" transform="translate(-168.61 -45.53)"/><path class="f" d="M502.13,207.42H487.52v15.91H479.7V186.81h7.82V201h14.61V186.81h7.78v36.52h-7.78Z" transform="translate(-168.61 -45.53)"/><path class="f" d="M556.34,205.07c0,10.48-5,18.83-17.53,18.83s-17.53-8.35-17.53-18.83,4.91-18.84,17.53-18.84S556.34,194.53,556.34,205.07Zm-8,0c0-6.94-2.51-12.16-9.5-12.16s-9.49,5.22-9.49,12.16,2.45,12.15,9.49,12.15S548.31,212.06,548.31,205.07Z" transform="translate(-168.61 -45.53)"/><path class="f" d="M589.32,198.08l-6.58,25.25H575l-10.17-36.52h8.87L579.51,213l6.62-26.14h6.37l6.57,26,5.85-26h8.92l-10.23,36.52h-7.77Z" transform="translate(-168.61 -45.53)"/><path class="f" d="M511.47,93.67l-3.78,14.52h-4.44l-5.85-21h5.1l3.33,15,3.81-15h3.66l3.78,14.94,3.36-14.94h5.13l-5.88,21h-4.47Z" transform="translate(-168.61 -45.53)"/><path class="f" d="M544.23,99h-8.4v9.15h-4.5v-21h4.5v8.13h8.4V87.19h4.47v21h-4.47Z" transform="translate(-168.61 -45.53)"/><path class="f" d="M568.71,104h-8.28l-1.35,4.17h-4.89l7.92-21H567l7.89,21h-4.86Zm-7.14-3.54h6l-3-9.24Z" transform="translate(-168.61 -45.53)"/><path class="f" d="M589.41,91v17.19h-4.5V91h-6.24V87.19h16.89V91Z" transform="translate(-168.61 -45.53)"/><path class="e" d="M741.41,641.56v4.24c-.54,0-1.5-.13-2.83-.13-3.94,0-4.65.86-4.65,5.71,0,4.56.39,5.53,4.62,5.53a19.5,19.5,0,0,0,4.32-.41l.18-.06V641.56Zm-2.71,13.72c-1.44,0-2.28,0-2.6-.4s-.43-1.53-.43-3.41v-.19c0-2.1.1-3.12.47-3.57s1.16-.42,2.54-.42,2.19.08,2.73.13v7.73c-.54.05-1.42.13-2.71.13" transform="translate(-168.61 -45.53)"/><path class="e" d="M756.72,651.38c0-4.85-.67-5.71-4.7-5.71s-4.73.8-4.73,5.71c0,4.56.4,5.53,4.56,5.53a22.67,22.67,0,0,0,4.48-.41l.39-.06V655l-.52.07a25.34,25.34,0,0,1-3.82.26c-1.56,0-2.46,0-2.81-.39s-.42-1.34-.42-3h7.57Zm-4.66-4.11c1.36,0,2.11,0,2.46.34s.42,1,.43,2.7h-5.8c0-1.65.09-2.34.44-2.7s1.1-.34,2.47-.34" transform="translate(-168.61 -45.53)"/><path class="e" d="M765.59,645.67a16.46,16.46,0,0,0-4.05.42l-.17.06v1.45l.34-.07a17.27,17.27,0,0,1,3.4-.26c2.37,0,2.82,0,2.82,2.32v.17H765c-2.32,0-4.32.16-4.32,3.5s2.46,3.57,4.63,3.57a21.55,21.55,0,0,0,4.32-.37l.18,0v-6.85c0-3.63-1.81-3.92-4.25-3.92m-.56,5.45h2.9v4a20.18,20.18,0,0,1-2.69.15c-2.2,0-2.75-.26-2.75-2.16s.34-2,2.54-2" transform="translate(-168.61 -45.53)"/><path class="e" d="M723.11,646.48h-1.53s.22,4.55.22,5.78,0,2-.38,2.32-1.46.37-3.25.37h-.54v-7.38h-1.91V655h-.28c-2,0-3-.12-3.39-.47s-.4-.93-.4-2.25.14-5.75.18-5.75h-1.55s-.17,4.7-.17,6c0,3.72.8,4.43,5.33,4.43h2.65c4.33,0,5.26-.44,5.26-4.47,0-1.06-.16-5.92-.24-5.92" transform="translate(-168.61 -45.53)"/><rect class="e" x="559.26" y="603.25" width="1.57" height="8.04"/><path class="e" d="M728.65,642.49a1.64,1.64,0,0,0-1.56,1.71,1.75,1.75,0,0,0,.9,1.55v.2a.33.33,0,0,0,.35.31H729a.33.33,0,0,0,.35-.31v-.2a1.74,1.74,0,0,0,.89-1.55A1.64,1.64,0,0,0,728.65,642.49Zm.13,2.23a.57.57,0,0,0-.13.08l-.13-.08a.59.59,0,0,1-.27-.52.42.42,0,1,1,.8,0A.59.59,0,0,1,728.78,644.72Z" transform="translate(-168.61 -45.53)"/><rect class="e" x="559.47" y="600.97" width="1.14" height="0.23"/><rect class="e" x="559.47" y="601.43" width="1.14" height="0.23"/><rect class="e" x="559.81" y="601.9" width="0.46" height="0.23"/><path class="e" d="M726.47,644H726v.25h.45V644Z" transform="translate(-168.61 -45.53)"/><path class="e" d="M730.83,644.29h.45V644h-.46c0,.06,0,.11,0,.16v.09Z" transform="translate(-168.61 -45.53)"/><path class="e" d="M728.77,641.81v-.45h-.24v.45h.24Z" transform="translate(-168.61 -45.53)"/><path class="e" d="M727.38,641.72l-.21.13.23.39a1.37,1.37,0,0,1,.2-.13Z" transform="translate(-168.61 -45.53)"/><path class="e" d="M726.4,642.74l-.12.21.4.23.11-.22Z" transform="translate(-168.61 -45.53)"/><path class="e" d="M731,643l-.12-.21-.39.22.11.22Z" transform="translate(-168.61 -45.53)"/><path class="e" d="M726.28,645.41l.12.21.36-.21-.1-.22Z" transform="translate(-168.61 -45.53)"/><path class="e" d="M730.9,645.62l.12-.21-.39-.22a2.14,2.14,0,0,1-.1.22Z" transform="translate(-168.61 -45.53)"/><path class="e" d="M730.12,641.85l-.21-.13-.22.38.21.14Z" transform="translate(-168.61 -45.53)"/></g></svg>