<svg xmlns="http://www.w3.org/2000/svg" viewBox="0 0 667.17 590.09"><defs><style>.a{isolation:isolate;}.b,.e{mix-blend-mode:multiply;}.b{opacity:0.66;}.c{fill:#55565a;}.d{fill:#c68200;}.f{fill:#d1cfcd;}.g{fill:#fff;}.h{mix-blend-mode:color;}</style></defs><g class="a"><g class="b"><path class="c" d="M329.46,227.32c19.84-74.36,75.3-119.83,193.83-121,81.85-.79,150.44,32.47,153.36,116.15l5.73,52.56c2.92,83.68-16.13,133.36-86.73,135.82L538,426.51c-44.12,1.54-162-11.73-186.55-51.41C344.61,364,325.15,243.49,329.46,227.32Z" transform="translate(-178.33 -100.24)"/></g><path class="d" d="M547.5,101.38c20.85,0,46.58,12.28,78.64,37.55,5.42,4.27,10.6,8.26,15.61,12.12C680.4,180.82,705.94,200.48,719,255.4c1.2,5,2.25,10.35,3.15,15.82-3.32-4.53-6.75-9-10.22-13.29-29-35.86-64.92-65.43-104-85.51-38.88-20-80.75-30.56-121.11-30.56a231.26,231.26,0,0,0-26,1.46c-2.22.25-4.6.55-7,1,13.89-7.13,27.61-13.57,39.54-19.07a112.75,112.75,0,0,0,15-8.9c11.06-7.35,22.5-15,39.21-15M426,159.53c-2,2.26-3.89,4.64-5.76,7-1.52,1.89-3.08,3.86-4.67,5.71a109.6,109.6,0,0,1-13.62,13.36c-7.14,1.56-14.28,3.38-21.29,5.43A339.73,339.73,0,0,1,426,159.53m46.93,20.74c87.21,0,175.45,33.31,248.5,93.8.5.68,1,1.38,1.49,2.07,3,20.64,3.46,41.94,3.55,60.07.21,40.67-1.5,87.85-15.74,129.39-18.16,53-57,96.92-109.29,123.69-49.86,25.52-105.13,33-152.62,36.92-11.33.94-26.29,2-41.6,2a242.94,242.94,0,0,1-43.62-3.58c-28.46-46.18-41.67-112.08-51.82-170.25-12.6-72.17-11.56-126.29,3.26-170.32,9-26.76,23.05-50.19,42.9-71.61,18.89-7.24,33.21-15.12,45-24.78a330.88,330.88,0,0,1,70-7.42M371,196.38c-5.08,4.61-9.9,9.36-14.37,14.16-10.32,3.93-21.14,7.37-31.6,10.7l-1.76.56c14.66-13.31,32.94-20.55,47.73-25.42m-55.84,30.41c-15.64,17.7-24.66,42.24-33.38,66l-2.43,6.59C276.28,307.61,273.07,316,270,324c-11.38,29.55-23.14,60.11-29.82,92.52-9.73,47.3-6.22,92.36,9.91,126.88a140.23,140.23,0,0,0,24.65,36.5c-17.66-14.64-31.53-30.47-42.08-48-19.05-31.6-29.75-72.87-31.82-122.66-1.12-27,.74-51.82,5.51-73.66,5.52-25.24,14.88-46,27.83-61.8,20.85-25.38,49-36.63,81-47m413.17,53.12c9.58,8.27,18.91,17,27.79,26.14,36.43,37.29,60.84,74.77,74.63,114.6a216,216,0,0,1,12,70.57c-.1,24.73-5,47.77-14.29,66.61-11.34,23.09-28.51,39.76-47.33,52.28A47.24,47.24,0,0,0,792.5,596.3c5.12-9.51,6.86-21.36,8-32.76,9.7-98.34-17.24-203.88-72.17-283.63M339.55,621l.08,0a183,183,0,0,0,22.54,5.69c1.45,2.33,2.94,4.6,4.45,6.79-9.12-3.85-18.17-8-27.07-12.51m33.62,17.67c54.26,21.76,112.35,32.79,172.73,32.79a522.47,522.47,0,0,0,158-24.87,615.94,615.94,0,0,1-78,27.45c-37.4,10.21-72.08,15.18-106,15.18-10.46,0-20.94-.5-31.14-1.47-17.08-1.63-58.83-6.48-77.56-16.16-14-7.25-26.77-18.31-38-32.92M547.5,100.24c-24.71,0-38.33,16.43-54.65,24-15.85,7.31-32,15-47.91,23.43a77.29,77.29,0,0,1,16-3.18A228,228,0,0,1,486.85,143C568.44,143,652,185.59,711,258.65q5.76,7.13,11.2,14.63l1.58,1.32c-1-6.54-2.2-13-3.72-19.46-14.85-62.46-46-79.83-93.26-117.1-36.39-28.69-60.94-37.8-79.34-37.8ZM444.94,147.63a37.37,37.37,0,0,0-9.46,4.67c-.84.57-1.64,1.19-2.43,1.84q5.91-3.33,11.89-6.51Zm-11.89,6.51c-20.25,11.43-39.78,24.31-57.29,39.52q13.2-4.09,26.67-7a111.19,111.19,0,0,0,14-13.68c5.46-6.39,10.38-13.65,16.64-18.82Zm39.85,25a330.61,330.61,0,0,0-70.47,7.51c-13.51,11.09-29,18.67-45.17,24.86a197.49,197.49,0,0,0-43.32,72.22c-17.67,52.48-13.33,113.47-3.31,170.87S333.91,579,362.87,625.68a244.63,244.63,0,0,0,44.32,3.69c13.94,0,27.88-.88,41.69-2,52.54-4.36,105.41-12.66,153-37.05S692,523.79,711.78,466c13.75-40.13,16-85.34,15.8-129.76-.11-20.15-.71-40.5-3.6-60.51l-1.74-2.42c-73.82-61.16-162.54-94.14-249.34-94.15Zm-97.14,14.53c-1.48.46-2.95.93-4.42,1.41-18.86,6.16-37.72,14.31-52.39,29.3,12.85-4.12,25.81-8.09,38.31-12.87a241.41,241.41,0,0,1,18.5-17.84ZM319,224.37c-31.94,10.24-63.28,21.47-85.68,48.75-28,34.07-35.66,86.6-33.6,136.23,1.78,43,10.42,87.43,32,123.19,16,26.59,38.12,46.7,61.9,63a142.32,142.32,0,0,1-42.47-52.55c-18-38.55-18.3-85-9.82-126.17s24.91-78.61,39.14-117c9.79-26.42,19.06-54.28,36.73-73.49.6-.65,1.2-1.29,1.82-1.91ZM723.82,274.6c0,.37.1.74.16,1.1C780.7,355.31,809.25,463,799.35,563.43c-1.12,11.36-2.8,23-7.85,32.33-7,12.93-19.25,19.84-31.1,25.8q-15.82,8-32,15.41c39.59-14.63,80.08-36.07,101-78.64,19.63-40,18-93,2.38-138.05s-43.75-83.15-74.88-115a448.56,448.56,0,0,0-33.1-30.65ZM293.55,595.49a154.24,154.24,0,0,0,26.7,16.5l-4.57-2.62c-7.45-4.32-14.87-8.92-22.13-13.88Zm26.7,16.5a449.35,449.35,0,0,0,49.58,24.07c-2.42-3.33-4.73-6.8-7-10.38A182.06,182.06,0,0,1,340,619.93,154.31,154.31,0,0,1,320.25,612Zm49.58,24.07c11.26,15.55,24.67,28.19,40.78,36.52C429,682.1,469,687,488.59,688.86c10.43,1,20.85,1.47,31.24,1.47,71.83,0,142.16-22.78,208.6-53.36l-1.51.55c-57.93,21.17-119.35,32.79-181,32.79-59.44,0-119.13-10.81-176.07-34.25Z" transform="translate(-178.33 -100.24)"/><g class="e"><path class="c" d="M831.62,459.87c-25-72.79-43.15-120.82-160.7-105.56-81.18,10.53-118-9-185.68,89.56l-1,89c8.68,83.29,50.89,134.91,121.15,127.59L664.59,668c43.91-4.58,158.84-34,177.65-76.71C847.51,579.31,847.92,507.31,831.62,459.87Z" transform="translate(-178.33 -100.24)"/></g><g class="b"><path class="f" d="M187.13,571.9c33.8,69.14,110.08,106.52,226.61,84.8,80.47-15,150.37-24.23,137.1-106.91L541,461.2c-13.27-82.68-58.26-131.89-128-120.7l-59.54-4.25c-43.6,7-156.72,42.73-173.15,86.4C175.66,434.88,179.78,556.86,187.13,571.9Z" transform="translate(-178.33 -100.24)"/></g><path class="c" d="M266.4,511.53h-4.17V519h-4.5V498h8.67c5.43,0,8.4,2.19,8.4,6.81S271.83,511.53,266.4,511.53Zm-.21-9.84h-4v6.15h4c2.28,0,4.05-.66,4.05-3.06S268.47,501.69,266.19,501.69Z" transform="translate(-178.33 -100.24)"/><path class="c" d="M288.72,510.83h-3.54V519h-4.5V498H290c5.46,0,8.43,2,8.43,6.42,0,3.51-1.83,5.49-5.22,6.18l5.25,8.39h-4.89Zm1-9.32h-4.59v5.79h4.53c2.4,0,4.17-.66,4.17-2.91S292.11,501.51,289.77,501.51Z" transform="translate(-178.33 -100.24)"/><path class="c" d="M324.06,508.47c0,6-2.85,10.82-10.08,10.82s-10.08-4.79-10.08-10.82,2.82-10.83,10.08-10.83S324.06,502.41,324.06,508.47Zm-4.62,0c0-4-1.44-7-5.46-7s-5.46,3-5.46,7,1.41,7,5.46,7S319.44,512.49,319.44,508.47Z" transform="translate(-178.33 -100.24)"/><path class="c" d="M340.44,519H330.6V498h8.46c5.19,0,7.83,1.8,7.83,5.1a4.62,4.62,0,0,1-3.45,4.68,5.46,5.46,0,0,1,4.59,5.58C348,516.78,345.66,519,340.44,519Zm-1.65-17.51H335.1v4.89h3.6c2.25,0,3.75-.78,3.75-2.52C342.45,502.35,341.34,501.45,338.79,501.45Zm.15,8.13H335.1v5.91h4.44c2.76,0,4-1.11,4-2.91C343.59,510.51,342,509.58,338.94,509.58Z" transform="translate(-178.33 -100.24)"/><path class="c" d="M354.21,519V498h4.5v17.19h9.93V519Z" transform="translate(-178.33 -100.24)"/><path class="c" d="M374.31,519V498h14.76v3.81H378.81v4.83h8.4v3.72h-8.4v4.83h10.44V519Z" transform="translate(-178.33 -100.24)"/><path class="c" d="M395.7,519V498h14.76v3.81H400.2v4.83h8.4v3.72h-8.4v4.83h10.44V519Z" transform="translate(-178.33 -100.24)"/><path class="c" d="M433.83,505.17l-4.89,10.29h-2.46l-4.89-10.26V519h-4.5V498h4.59l6,12.65,6-12.65h4.62v21h-4.5Z" transform="translate(-178.33 -100.24)"/><path class="g" d="M602.59,508c0,6-2.85,10.83-10.08,10.83s-10.08-4.8-10.08-10.83,2.82-10.83,10.08-10.83S602.59,502,602.59,508ZM598,508c0-4-1.44-7-5.46-7s-5.46,3-5.46,7,1.41,7,5.46,7S598,512,598,508Z" transform="translate(-178.33 -100.24)"/><path class="g" d="M617.8,511.08h-4.17v7.44h-4.5v-21h8.67c5.43,0,8.4,2.19,8.4,6.81S623.23,511.08,617.8,511.08Zm-.21-9.84h-4v6.15h4c2.28,0,4-.66,4-3.06S619.87,501.24,617.59,501.24Z" transform="translate(-178.33 -100.24)"/><path class="g" d="M632.08,518.52v-21h4.5v17.19h9.93v3.81Z" transform="translate(-178.33 -100.24)"/><path class="g" d="M671.44,508c0,6-2.85,10.83-10.08,10.83s-10.08-4.8-10.08-10.83,2.82-10.83,10.08-10.83S671.44,502,671.44,508Zm-4.62,0c0-4-1.44-7-5.46-7s-5.46,3-5.46,7,1.41,7,5.46,7S666.82,512,666.82,508Z" transform="translate(-178.33 -100.24)"/><path class="g" d="M693.91,512.64c0,3.72-3,6.21-7.74,6.21a19.5,19.5,0,0,1-9.54-2.82l2-3.21a18,18,0,0,0,7.38,2.31c1.68,0,3.18-.69,3.18-2.16,0-2-3-2.31-6.63-3.69-2.49-.84-5.46-2.34-5.46-6s2.79-6.09,7.5-6.09a20.25,20.25,0,0,1,8.61,2.16l-2,3.27a17.94,17.94,0,0,0-6.33-1.71c-1.62,0-3.06.63-3.06,2.07,0,2,2.91,2.13,6.33,3.42C690.61,507.3,693.91,508.74,693.91,512.64Z" transform="translate(-178.33 -100.24)"/><path class="g" d="M715.87,512.64c0,3.72-3,6.21-7.74,6.21a19.5,19.5,0,0,1-9.54-2.82l2-3.21a18,18,0,0,0,7.38,2.31c1.68,0,3.18-.69,3.18-2.16,0-2-3-2.31-6.63-3.69-2.49-.84-5.46-2.34-5.46-6s2.79-6.09,7.5-6.09a20.25,20.25,0,0,1,8.61,2.16l-2,3.27a17.94,17.94,0,0,0-6.33-1.71c-1.62,0-3.06.63-3.06,2.07,0,2,2.91,2.13,6.33,3.42C712.57,507.3,715.87,508.74,715.87,512.64Z" transform="translate(-178.33 -100.24)"/><path class="g" d="M721.9,518.52v-21h4.5v21Z" transform="translate(-178.33 -100.24)"/><path class="g" d="M738.34,504.24v14.28h-4.5v-21h4.56l8.82,14.34V497.52h4.47v21h-4.56Z" transform="translate(-178.33 -100.24)"/><path class="g" d="M772.39,516.39a8.81,8.81,0,0,1-5.88,2.46c-4.41,0-8.28-3.42-8.28-10.8S762,497.19,767,497.19c3.57,0,6.6,1.53,9.33,3.12l-2.13,3.3c-2.19-1.2-4.47-2.4-6.66-2.4-2.94,0-4.68,2.61-4.68,6.81s1.56,7,4.62,7c2,0,4-1.56,4.92-2.43V510h-5v-3.54h9.21v12h-4.2Z" transform="translate(-178.33 -100.24)"/><path class="c" d="M406.62,265.34h-7.5v-21h7.5c6.75,0,10.56,3,10.56,10.5S413.37,265.34,406.62,265.34Zm-.39-17.19h-2.61v13.38h2.61c4.2,0,6.45-1.62,6.45-6.69S410.43,248.15,406.23,248.15Z" transform="translate(-178.33 -100.24)"/><path class="c" d="M443,254.84c0,6-2.85,10.83-10.08,10.83s-10.08-4.8-10.08-10.83S425.67,244,432.93,244,443,248.78,443,254.84Zm-4.62,0c0-4-1.44-7-5.46-7s-5.46,3-5.46,7,1.41,7,5.46,7S438.39,258.86,438.39,254.84Z" transform="translate(-178.33 -100.24)"/><path class="c" d="M449.55,265.34v-21h14.76v3.81H454.05V253h8.4v3.72h-8.4v4.83h10.44v3.81Z" transform="translate(-178.33 -100.24)"/><path class="c" d="M470.94,265.34v-21h4.5v17.19h9.93v3.81Z" transform="translate(-178.33 -100.24)"/><path class="c" d="M504.3,263.21a8.81,8.81,0,0,1-5.88,2.46c-4.41,0-8.28-3.42-8.28-10.8S494,244,498.9,244c3.57,0,6.6,1.53,9.33,3.12l-2.13,3.3c-2.19-1.2-4.47-2.4-6.66-2.4-2.94,0-4.68,2.61-4.68,6.81s1.56,7,4.62,7c2,0,4-1.56,4.92-2.43v-2.58h-5v-3.54h9.21v12h-4.2Z" transform="translate(-178.33 -100.24)"/><path class="c" d="M523.38,257.21h-3.54v8.13h-4.5v-21h9.3c5.46,0,8.43,2,8.43,6.42,0,3.51-1.83,5.49-5.22,6.18l5.25,8.4h-4.89Zm1-9.33h-4.59v5.79h4.53c2.4,0,4.17-.66,4.17-2.91S526.77,247.88,524.43,247.88Z" transform="translate(-178.33 -100.24)"/><path class="c" d="M558.72,254.84c0,6-2.85,10.83-10.08,10.83s-10.08-4.8-10.08-10.83S541.38,244,548.64,244,558.72,248.78,558.72,254.84Zm-4.62,0c0-4-1.44-7-5.46-7s-5.46,3-5.46,7,1.41,7,5.46,7S554.1,258.86,554.1,254.84Z" transform="translate(-178.33 -100.24)"/><path class="c" d="M565.26,265.34v-21H580v3.81H569.76V253h8.4v3.72h-8.4v4.83H580.2v3.81Z" transform="translate(-178.33 -100.24)"/><path class="c" d="M595.32,257.9h-4.17v7.44h-4.5v-21h8.67c5.43,0,8.4,2.19,8.4,6.81S600.75,257.9,595.32,257.9Zm-.21-9.84h-4v6.15h4c2.28,0,4-.66,4-3.06S597.39,248.06,595.11,248.06Z" transform="translate(-178.33 -100.24)"/><g class="h"><path class="d" d="M525.68,336.18,511.79,336c-26.45-.28-48.35,24-48.67,53.87,0,0-6,40.24,34.92,62.94,6.19,3.43,76.15,1.78,75-46l.17-15.72c.2-18.69-8.08-35.36-20.77-45.29C548.86,343,531,336.24,525.68,336.18Z" transform="translate(-178.33 -100.24)"/></g><g class="e"><path class="f" d="M747.63,660.71V665c-.54-.05-1.5-.13-2.83-.13-3.94,0-4.65.86-4.65,5.72,0,4.55.39,5.53,4.62,5.53a18.39,18.39,0,0,0,4.32-.42l.18-.06V660.71Zm-2.71,13.72c-1.43,0-2.28,0-2.6-.4s-.43-1.52-.43-3.41v-.19c0-2.1.1-3.12.47-3.57s1.16-.42,2.54-.42,2.19.08,2.73.13v7.73c-.54.05-1.42.13-2.71.13" transform="translate(-178.33 -100.24)"/><path class="f" d="M762.94,670.54c0-4.86-.67-5.72-4.7-5.72s-4.73.8-4.73,5.72c0,4.55.4,5.53,4.56,5.53a21.33,21.33,0,0,0,4.48-.42l.39-.06v-1.45l-.52.07a25.28,25.28,0,0,1-3.81.26c-1.57,0-2.46,0-2.82-.39s-.42-1.34-.42-3h7.57Zm-4.66-4.12c1.36,0,2.11,0,2.46.34s.43,1.06.43,2.7h-5.8c0-1.64.09-2.34.44-2.7s1.1-.34,2.47-.34" transform="translate(-178.33 -100.24)"/><path class="f" d="M771.81,664.82a16.23,16.23,0,0,0-4,.42l-.18.06v1.45l.34-.07a17.27,17.27,0,0,1,3.4-.26c2.37,0,2.82,0,2.82,2.32v.17h-2.9c-2.32,0-4.32.16-4.32,3.51s2.46,3.57,4.63,3.57a20.19,20.19,0,0,0,4.32-.38l.18,0v-6.85c0-3.63-1.81-3.92-4.25-3.92m-.56,5.46h2.9v4a18.38,18.38,0,0,1-2.69.15c-2.2,0-2.74-.26-2.74-2.16s.33-2,2.53-2" transform="translate(-178.33 -100.24)"/><path class="f" d="M729.33,665.63H727.8s.22,4.55.22,5.78,0,2-.38,2.32-1.45.37-3.25.37h-.54v-7.38h-1.91v7.38h-.28c-2,0-3-.12-3.39-.46s-.4-.94-.4-2.26.14-5.75.18-5.75H716.5s-.17,4.7-.17,6c0,3.71.8,4.42,5.33,4.42h2.65c4.33,0,5.26-.44,5.26-4.47,0-1.06-.16-5.92-.24-5.92" transform="translate(-178.33 -100.24)"/><rect class="f" x="555.76" y="567.69" width="1.57" height="8.04"/><path class="f" d="M734.87,661.64a1.64,1.64,0,0,0-1.55,1.71,1.72,1.72,0,0,0,.89,1.55v.2a.33.33,0,0,0,.35.31h.62a.33.33,0,0,0,.35-.31v-.2a1.72,1.72,0,0,0,.89-1.55A1.64,1.64,0,0,0,734.87,661.64Zm.13,2.23a.15.15,0,0,1-.26,0,.59.59,0,0,1-.27-.52.42.42,0,1,1,.8,0A.59.59,0,0,1,735,663.87Z" transform="translate(-178.33 -100.24)"/><rect class="f" x="555.97" y="565.4" width="1.14" height="0.23"/><rect class="f" x="555.97" y="565.87" width="1.14" height="0.23"/><rect class="f" x="556.31" y="566.34" width="0.46" height="0.23"/><path class="f" d="M732.7,663.19h-.46v.25h.45v-.08a1,1,0,0,1,0-.17Z" transform="translate(-178.33 -100.24)"/><path class="f" d="M737.05,663.44h.45v-.25H737a1,1,0,0,1,0,.17v.08Z" transform="translate(-178.33 -100.24)"/><path class="f" d="M735,661v-.46h-.25V661H735Z" transform="translate(-178.33 -100.24)"/><path class="f" d="M733.6,660.88l-.21.12.23.4.2-.14Z" transform="translate(-178.33 -100.24)"/><path class="f" d="M732.62,661.89l-.12.21.4.23a2.26,2.26,0,0,1,.11-.22Z" transform="translate(-178.33 -100.24)"/><path class="f" d="M737.24,662.1l-.12-.21-.39.22a1.51,1.51,0,0,1,.11.22Z" transform="translate(-178.33 -100.24)"/><path class="f" d="M732.5,664.56l.12.21.37-.21-.11-.22Z" transform="translate(-178.33 -100.24)"/><path class="f" d="M737.12,664.77l.12-.21-.38-.22-.11.22Z" transform="translate(-178.33 -100.24)"/><path class="f" d="M736.35,661l-.21-.12-.22.38.2.13Z" transform="translate(-178.33 -100.24)"/></g><path class="g" d="M521.43,372.05c-11.42,0-20.7,10.18-20.7,22.74,0,9.09,4.86,16.95,11.89,20.58v2.69a4.47,4.47,0,0,0,4.69,4.18h8.23a4.47,4.47,0,0,0,4.7-4.18v-2.69c7-3.63,11.88-11.49,11.88-20.58C542.12,382.23,532.86,372.05,521.43,372.05Zm1.73,29.64a16.58,16.58,0,0,0-1.73,1.05,17.69,17.69,0,0,0-1.73-1.05c-1.78-.91-3.57-3.41-3.57-6.9,0-4.32,2.8-7.34,5.3-7.34s5.29,3,5.29,7.34C526.72,398.28,524.93,400.78,523.16,401.69Z" transform="translate(-178.33 -100.24)"/><rect class="g" x="335.54" y="325.09" width="15.14" height="3.1"/><rect class="g" x="335.54" y="331.28" width="15.14" height="3.1"/><rect class="g" x="340.08" y="337.48" width="6.07" height="3.09"/><path class="g" d="M492.49,392.69h-6v3.23h6c0-.36,0-.72,0-1.08,0-.73,0-1.44.07-2.15Z" transform="translate(-178.33 -100.24)"/><path class="g" d="M550.42,395.92h6v-3.23h-6c0,.71.08,1.42.08,2.15,0,.36,0,.72,0,1.08Z" transform="translate(-178.33 -100.24)"/><path class="g" d="M523.11,363v-6h-3.23v6c.52,0,1-.05,1.55-.05s1.13,0,1.68.06Z" transform="translate(-178.33 -100.24)"/><path class="g" d="M504.51,361.82l-2.79,1.61,3,5.31a28.28,28.28,0,0,1,2.68-1.84Z" transform="translate(-178.33 -100.24)"/><path class="g" d="M491.44,375.3l-1.61,2.8,5.37,3.11a29.07,29.07,0,0,1,1.43-2.91Z" transform="translate(-178.33 -100.24)"/><path class="g" d="M553,378.1l-1.62-2.79-5.13,3c.51.93,1,1.91,1.42,2.9Z" transform="translate(-178.33 -100.24)"/><path class="g" d="M489.83,410.88l1.61,2.8,4.9-2.83c-.5-1-1-1.93-1.37-2.94Z" transform="translate(-178.33 -100.24)"/><path class="g" d="M551.35,413.68l1.62-2.79-5.09-2.95c-.43,1-.89,2-1.39,2.94Z" transform="translate(-178.33 -100.24)"/><path class="g" d="M541.08,363.43l-2.8-1.61-2.92,5.05A27.37,27.37,0,0,1,538,368.7Z" transform="translate(-178.33 -100.24)"/></g></svg>