<svg xmlns="http://www.w3.org/2000/svg" viewBox="0 0 326.35 585.72"><defs><style>.a{opacity:0.33;}.b{fill:#0081c6;}.c{fill:none;stroke:#0081c6;stroke-miterlimit:10;stroke-width:1.43px;}</style></defs><g class="a"><path class="b" d="M474.41,542.29c-15.23-38.67-11.09-58.41-7.66-99.84,1.54-18.59-5.35-96.64-1.64-114.93,11.58-57.16,29.83-59.51,54.41-112.4,31.81,11.23,51.73,55.39,60.13,88.06,22.61,87.93,7.07,173.21-8.8,262.6-.83,4.65-1.77,9.45-4.45,13.33-4.79,6.94-13.95,9.35-22.37,9.65-25.26.9-51.42,8.13-63.17-14.25C480.86,574.51,475.58,545.26,474.41,542.29Z" transform="translate(-360.65 -91.98)"/></g><path class="b" d="M523.88,183.75c4.2,4.24,21.19,22.27,37.76,52.54a298.27,298.27,0,0,1,26.13,64.93,316.13,316.13,0,0,1,10.81,88.7c-1.38,78-6.39,135.6-14.87,171.29-6.65,28-13.9,36.21-18.82,38.2-19.32,7.85-33,9.49-41.12,9.49s-21.6-1.65-40.9-9.49c-4.92-2-12.17-10.24-18.82-38.2-8.49-35.69-13.49-93.32-14.88-171.29A316.5,316.5,0,0,1,460,301.22a298.74,298.74,0,0,1,26.12-64.93c16.58-30.27,33.57-48.3,37.77-52.54m0-2s-78.52,73.94-76.14,208.2c3.2,180.42,25,206.92,34.59,210.8,16.78,6.81,30.86,9.59,41.44,9.6h0c10.63,0,24.87-2.79,41.63-9.6,9.54-3.88,31.38-30.38,34.59-210.8,2.38-134.26-76.14-208.2-76.14-208.2Z" transform="translate(-360.65 -91.98)"/><path class="c" d="M579.92,574.56s38.48-7.18,44.69,43.92c6.41-48.1,1.35-110.71-15.2-133-9.34-12.59-13.81,1.34-13.81,1.34" transform="translate(-360.65 -91.98)"/><path class="c" d="M467.58,574.56s-38.48-7.18-44.69,43.92c-6.41-48.1-1.35-110.71,15.2-133,9.34-12.59,13.81,1.34,13.81,1.34" transform="translate(-360.65 -91.98)"/><line class="c" x1="163.12" x2="163.12" y2="66.95"/><line class="c" x1="66.95" y1="226.24" y2="226.24"/><line class="c" x1="326.35" y1="226.24" x2="259.4" y2="226.24"/><line class="c" x1="283.07" y1="100.11" x2="235.73" y2="147.45"/><line class="c" x1="43.28" y1="100.11" x2="90.62" y2="147.45"/><path class="c" d="M566,600.47v13.85a14.37,14.37,0,0,1-14.32,14.33H495.15a14.37,14.37,0,0,1-14.33-14.33V600" transform="translate(-360.65 -91.98)"/><path class="c" d="M559,626.67v6.76a12,12,0,0,1-11.94,12H499.86a12,12,0,0,1-11.95-12v-6.76" transform="translate(-360.65 -91.98)"/><path class="c" d="M550,645v5.69a9,9,0,0,1-8.93,8.92H505.81a9,9,0,0,1-8.92-8.92V645" transform="translate(-360.65 -91.98)"/><path class="c" d="M533.37,659.62v7.43a9.94,9.94,0,1,1-19.87,0v-7.43" transform="translate(-360.65 -91.98)"/><path class="c" d="M530.41,606.06c-.72-42.77,2.52-188.7,3.29-222.13,0-13,8.19-21.38,20.17-15.58,15.94,7.73,1.39,47.37-25.2,47.37-8.64,0-23.71-5-30.52-10.27-25.61-19.79-23.25-38.37-13-43.79,16.5-8.75,29.07,2.83,29.07,23.08,0,15.25,3.79,198.44,3.65,221.59" transform="translate(-360.65 -91.98)"/></svg>