<svg width="396" height="158" viewBox="0 0 396 158" fill="none" xmlns="http://www.w3.org/2000/svg">
<g clip-path="url(#clip0_804_43)">
<g clip-path="url(#clip1_804_43)">
<path d="M38.12 44.3999C25.65 44.3999 15.55 55.5099 15.55 69.1999C15.55 79.1199 20.85 87.6799 28.51 91.6399V94.5599C28.51 97.0799 30.8101 99.1199 33.6301 99.1199H42.59C45.42 99.1199 47.7201 97.0699 47.7201 94.5599V91.6399C55.3801 87.6799 60.68 79.1199 60.68 69.1999C60.68 55.5099 50.58 44.3999 38.12 44.3999V44.3999Z" fill="#0082C2"/>
<path d="M46.3899 102.5H29.8799V105.87H46.3899V102.5Z" fill="#0082C2"/>
<path d="M46.3899 109.25H29.8799V112.62H46.3899V109.25Z" fill="#0082C2"/>
<path d="M41.4501 116H34.8201V119.37H41.4501V116Z" fill="#0082C2"/>
<path d="M6.57 66.9099H0V70.4299H6.52C6.51 70.0399 6.5 69.6399 6.5 69.2499C6.5 68.4599 6.53 67.6799 6.57 66.9099Z" fill="#0082C2"/>
<path d="M69.7299 70.4299H76.2499V66.9099H69.6799C69.7299 67.6799 69.7499 68.4599 69.7499 69.2499C69.7499 69.6499 69.7499 70.0399 69.7299 70.4299Z" fill="#0082C2"/>
<path d="M39.9599 34.56V28H36.4399V34.55C36.9999 34.52 37.5599 34.5 38.1299 34.5C38.7499 34.5 39.3599 34.52 39.9599 34.56V34.56Z" fill="#0082C2"/>
<path d="M19.6799 33.25L16.6299 35.01L19.9699 40.8C20.9099 40.08 21.8799 39.41 22.8799 38.8L19.6799 33.25V33.25Z" fill="#0082C2"/>
<path d="M5.42992 47.95L3.66992 51L9.52992 54.3799C9.99992 53.2899 10.5199 52.2299 11.0799 51.2099L5.42992 47.95V47.95Z" fill="#0082C2"/>
<path d="M72.4999 51.01L70.7399 47.96L65.1399 51.19C65.7099 52.21 66.2299 53.27 66.6999 54.36L72.4999 51.01V51.01Z" fill="#0082C2"/>
<path d="M3.66992 86.74L5.42992 89.79L10.7799 86.7C10.2299 85.67 9.72992 84.6 9.27992 83.5L3.66992 86.74V86.74Z" fill="#0082C2"/>
<path d="M70.74 89.8L72.5 86.75L66.95 83.54C66.5 84.64 66 85.71 65.45 86.74L70.74 89.8V89.8Z" fill="#0082C2"/>
<path d="M59.5501 35.01L56.5001 33.25L53.3201 38.76C54.3301 39.37 55.3001 40.03 56.2401 40.75L59.5601 35L59.5501 35.01Z" fill="#0082C2"/>
<path d="M137.5 80.9102H121.19V44.6602H135.12C143.77 44.6602 148.32 47.7702 148.32 53.5102C148.32 58.5802 144.59 61.1702 142.26 61.5902C145.06 62.0602 150.29 64.4902 150.29 71.1702C150.29 77.1802 146.2 80.9102 137.5 80.9102ZM134.81 49.8902H127.82V59.4702H134.6C138.79 59.4702 141.75 57.9702 141.75 54.5502C141.75 51.7002 139.63 49.8902 134.81 49.8902ZM135.02 64.3402H127.82V75.7302H136.36C141.38 75.7302 143.71 73.5002 143.71 70.1402C143.71 66.2002 140.71 64.3402 135.01 64.3402H135.02Z" fill="#0082C2"/>
<path d="M189.07 66.7702C189.07 74.9502 186.07 81.4802 174.52 81.4802C162.97 81.4802 159.92 74.9602 159.92 66.7702V44.6602H166.55V67.2402C166.55 72.0002 167.95 75.7802 174.52 75.7802C181.09 75.7802 182.39 72.0002 182.39 67.2402V44.6602H189.07V66.7702V66.7702Z" fill="#0082C2"/>
<path d="M227.39 71.0101C227.39 77.4801 221.95 81.4701 214.39 81.4701C208.33 81.4701 202.07 78.9301 198.54 76.7601L201.54 71.9401C204.7 73.7501 210.29 75.9301 214.23 75.9301C217.44 75.9301 220.44 74.4801 220.44 71.4801C220.44 67.7501 215.37 66.8701 209.15 64.5901C204.64 63.0901 199.36 60.6001 199.36 54.2901C199.36 47.9801 204.28 44.0901 211.89 44.0901C216.86 44.0901 222.45 45.8501 226.13 47.7101L223.13 52.5801C220.07 51.1301 215.36 49.6801 212.2 49.6801C209.04 49.6801 206.35 50.9201 206.35 53.8701C206.35 57.6001 211.22 58.0601 216.91 60.1901C221.47 61.7401 227.37 64.2301 227.37 71.0101H227.39Z" fill="#0082C2"/>
<path d="M237.07 80.9102V44.6602H243.7V80.9102H237.07Z" fill="#0082C2"/>
<path d="M262.6 54.5002V80.9102H255.97V44.6602H262.75L279.11 71.0202V44.6602H285.79V80.9102H279.01L262.6 54.5002V54.5002Z" fill="#0082C2"/>
<path d="M298.07 80.9102V44.6602H322.72V50.3602H304.7V59.9902H319.51V65.5802H304.7V75.2602H322.98V80.9002H298.07V80.9102Z" fill="#0082C2"/>
<path d="M359.8 71.0101C359.8 77.4801 354.36 81.4701 346.8 81.4701C340.74 81.4701 334.48 78.9301 330.95 76.7601L333.95 71.9401C337.11 73.7501 342.7 75.9301 346.64 75.9301C349.85 75.9301 352.85 74.4801 352.85 71.4801C352.85 67.7501 347.78 66.8701 341.56 64.5901C337.05 63.0901 331.77 60.6001 331.77 54.2901C331.77 47.9801 336.69 44.0901 344.3 44.0901C349.27 44.0901 354.86 45.8501 358.54 47.7101L355.54 52.5801C352.49 51.1301 347.77 49.6801 344.61 49.6801C341.45 49.6801 338.76 50.9201 338.76 53.8701C338.76 57.6001 343.63 58.0601 349.32 60.1901C353.88 61.7401 359.78 64.2301 359.78 71.0101H359.8Z" fill="#0082C2"/>
<path d="M395.89 71.0101C395.89 77.4801 390.45 81.4701 382.89 81.4701C376.83 81.4701 370.57 78.9301 367.04 76.7601L370.04 71.9401C373.2 73.7501 378.79 75.9301 382.73 75.9301C385.94 75.9301 388.94 74.4801 388.94 71.4801C388.94 67.7501 383.87 66.8701 377.65 64.5901C373.14 63.0901 367.86 60.6001 367.86 54.2901C367.86 47.9801 372.78 44.0901 380.39 44.0901C385.36 44.0901 390.95 45.8501 394.63 47.7101L391.63 52.5801C388.58 51.1301 383.86 49.6801 380.7 49.6801C377.54 49.6801 374.85 50.9201 374.85 53.8701C374.85 57.6001 379.72 58.0601 385.41 60.1901C389.97 61.7401 395.87 64.2301 395.87 71.0101H395.89Z" fill="#0082C2"/>
<path d="M132.3 115.27L138.33 97.22H143.07L134.54 119.66H130.02L121.49 97.22H126.23L132.29 115.27H132.3Z" fill="#0082C2"/>
<path d="M148.17 119.66V97.22H163.43V100.75H152.27V106.71H161.44V110.17H152.27V116.16H163.59V119.65H148.17V119.66Z" fill="#0082C2"/>
<path d="M178.2 110.69H173.84V119.67H169.74V97.23H179.26C184.77 97.23 188.08 99.22 188.08 103.96C188.08 107.81 185.93 109.83 182.28 110.47L188.12 119.67H183.6L178.21 110.69H178.2ZM179.13 100.49H173.84V107.41H179.03C181.85 107.41 183.87 106.58 183.87 103.95C183.87 101.32 181.85 100.49 179.13 100.49V100.49Z" fill="#0082C2"/>
<path d="M204.3 119.66H194.2V97.22H202.82C208.17 97.22 211 99.14 211 102.7C211 105.84 208.69 107.45 207.25 107.7C208.98 107.99 212.22 109.5 212.22 113.63C212.22 117.35 209.69 119.66 204.3 119.66V119.66ZM202.63 100.46H198.3V106.39H202.5C205.1 106.39 206.92 105.46 206.92 103.34C206.92 101.58 205.61 100.45 202.62 100.45L202.63 100.46ZM202.76 109.4H198.3V116.45H203.59C206.7 116.45 208.14 115.07 208.14 112.99C208.14 110.55 206.28 109.4 202.75 109.4H202.76Z" fill="#0082C2"/>
<path d="M218.11 119.66V97.22H233.37V100.75H222.21V106.71H231.38V110.17H222.21V116.16H233.53V119.65H218.11V119.66Z" fill="#0082C2"/>
<path d="M248.56 100.75V119.67H244.42V100.75H237.62V97.22H255.28V100.75H248.55H248.56Z" fill="#0082C2"/>
<path d="M260.55 119.66V97.22H275.81V100.75H264.65V106.71H273.82V110.17H264.65V116.16H275.97V119.65H260.55V119.66Z" fill="#0082C2"/>
<path d="M290.59 110.69H286.23V119.67H282.13V97.23H291.65C297.16 97.23 300.47 99.22 300.47 103.96C300.47 107.81 298.32 109.83 294.67 110.47L300.51 119.67H295.99L290.6 110.69H290.59ZM291.52 100.49H286.23V107.41H291.42C294.24 107.41 296.26 106.58 296.26 103.95C296.26 101.32 294.24 100.49 291.52 100.49V100.49Z" fill="#0082C2"/>
<path d="M319.89 114.89H310.53L308.93 119.67H304.44L312.97 97.23H317.49L325.99 119.67H321.53L319.89 114.89V114.89ZM311.62 111.59H318.8L315.21 100.95L311.62 111.59V111.59Z" fill="#0082C2"/>
<path d="M344.44 114.89H335.08L333.48 119.67H328.99L337.52 97.23H342.04L350.54 119.67H346.08L344.44 114.89V114.89ZM336.17 111.59H343.35L339.76 100.95L336.17 111.59V111.59Z" fill="#0082C2"/>
<path d="M364.16 110.69H359.8V119.67H355.7V97.23H365.22C370.73 97.23 374.04 99.22 374.04 103.96C374.04 107.81 371.89 109.83 368.24 110.47L374.07 119.67H369.55L364.16 110.69V110.69ZM365.09 100.49H359.8V107.41H364.99C367.81 107.41 369.83 106.58 369.83 103.95C369.83 101.32 367.81 100.49 365.08 100.49H365.09Z" fill="#0082C2"/>
<path d="M396.5 113.54C396.5 117.55 393.13 120.02 388.45 120.02C384.7 120.02 380.82 118.45 378.64 117.1L380.5 114.12C382.46 115.24 385.92 116.59 388.35 116.59C390.34 116.59 392.2 115.69 392.2 113.83C392.2 111.52 389.06 110.98 385.21 109.57C382.42 108.64 379.15 107.1 379.15 103.19C379.15 99.2801 382.2 96.8701 386.91 96.8701C389.99 96.8701 393.45 97.9601 395.73 99.1101L393.87 102.12C391.98 101.22 389.06 100.32 387.11 100.32C385.16 100.32 383.49 101.09 383.49 102.92C383.49 105.23 386.5 105.52 390.03 106.83C392.85 107.79 396.51 109.33 396.51 113.53L396.5 113.54Z" fill="#0082C2"/>
<path d="M96.77 44.6599H93.25V119.67H96.77V44.6599Z" fill="#0082C2"/>
</g>
</g>
<defs>
<clipPath id="clip0_804_43">
<rect width="396" height="158" fill="white"/>
</clipPath>
<clipPath id="clip1_804_43">
<rect width="396.5" height="92.02" fill="white" transform="translate(0 28)"/>
</clipPath>
</defs>
</svg>
