<svg width="100" height="100" viewBox="0 20 80 110" fill="none" xmlns="http://www.w3.org/2000/svg">
<path d="M38.12 44.3999C25.65 44.3999 15.55 55.5099 15.55 69.1999C15.55 79.1199 20.85 87.6799 28.51 91.6399V94.5599C28.51 97.0799 30.8101 99.1199 33.6301 99.1199H42.59C45.42 99.1199 47.7201 97.0699 47.7201 94.5599V91.6399C55.3801 87.6799 60.68 79.1199 60.68 69.1999C60.68 55.5099 50.58 44.3999 38.12 44.3999V44.3999Z" fill="#f36b00"/>
<path d="M46.3899 102.5H29.8799V105.87H46.3899V102.5Z" fill="#f36b00"/>
<path d="M46.3899 109.25H29.8799V112.62H46.3899V109.25Z" fill="#f36b00"/>
<path d="M41.4501 116H34.8201V119.37H41.4501V116Z" fill="#f36b00"/>
<path d="M6.57 66.9099H0V70.4299H6.52C6.51 70.0399 6.5 69.6399 6.5 69.2499C6.5 68.4599 6.53 67.6799 6.57 66.9099Z" fill="#f36b00"/>
<path d="M69.7299 70.4299H76.2499V66.9099H69.6799C69.7299 67.6799 69.7499 68.4599 69.7499 69.2499C69.7499 69.6499 69.7499 70.0399 69.7299 70.4299Z" fill="#f36b00"/>
<path d="M39.9599 34.56V28H36.4399V34.55C36.9999 34.52 37.5599 34.5 38.1299 34.5C38.7499 34.5 39.3599 34.52 39.9599 34.56V34.56Z" fill="#f36b00"/>
<path d="M19.6799 33.25L16.6299 35.01L19.9699 40.8C20.9099 40.08 21.8799 39.41 22.8799 38.8L19.6799 33.25V33.25Z" fill="#f36b00"/>
<path d="M5.42992 47.95L3.66992 51L9.52992 54.3799C9.99992 53.2899 10.5199 52.2299 11.0799 51.2099L5.42992 47.95V47.95Z" fill="#f36b00"/>
<path d="M72.4999 51.01L70.7399 47.96L65.1399 51.19C65.7099 52.21 66.2299 53.27 66.6999 54.36L72.4999 51.01V51.01Z" fill="#f36b00"/>
<path d="M3.66992 86.74L5.42992 89.79L10.7799 86.7C10.2299 85.67 9.72992 84.6 9.27992 83.5L3.66992 86.74V86.74Z" fill="#f36b00"/>
<path d="M70.74 89.8L72.5 86.75L66.95 83.54C66.5 84.64 66 85.71 65.45 86.74L70.74 89.8V89.8Z" fill="#f36b00"/>
<path d="M59.5501 35.01L56.5001 33.25L53.3201 38.76C54.3301 39.37 55.3001 40.03 56.2401 40.75L59.5601 35L59.5501 35.01Z" fill="#f36b00"/>
</svg>
